<svg
  width="20"
  height="20"
  viewBox="0 0 20 20"
  fill="none"
  xmlns="http://www.w3.org/2000/svg"
>
<path
    d="M12.5781 17.6562V18.6328C12.5781 19.3867 13.1914 20 13.9453 20H18.6328C19.3867 20 20 19.3867 20 18.6328V17.6562H12.5781Z"
    fill="#99CC00"
  />
<path
    d="M20 16.4844V9.25781C20 8.50391 19.3867 7.89062 18.6328 7.89062H13.9453C13.1914 7.89062 12.5781 8.50391 12.5781 9.25781V16.4844H20Z"
    fill="#99CC00"
  />
<path
    d="M13.9453 6.71875C13.9453 6.71875 18.7617 6.71484 18.8281 6.71875V6.05469C18.8281 5.30078 18.2148 4.6875 17.4609 4.6875H10.4297C9.67578 4.6875 9.0625 5.30078 9.0625 6.05469V15.625H11.4062V9.25781C11.4062 7.85938 12.5469 6.71875 13.9453 6.71875Z"
    fill="#99CC00"
  />
<path
    d="M11.4063 16.7969H9.0625V17.7734C9.0625 18.5273 9.67578 19.1406 10.4297 19.1406H11.457C11.4219 18.9766 11.4063 18.8047 11.4063 18.6328V16.7969Z"
    fill="#99CC00"
  />
<path
    d="M10.4297 3.51562H17.4609C17.8086 3.51562 18.1367 3.58594 18.4375 3.71094V2.14844C18.4375 0.964844 17.4727 0 16.2891 0H2.14844C0.964844 0 0 0.964844 0 2.14844V8.98438H7.89062V6.05469C7.89062 4.65625 9.03125 3.51562 10.4297 3.51562Z"
    fill="#99CC00"
  />
<path
    d="M0 10.1562V10.3516C0 11.5352 0.964844 12.5 2.14844 12.5H7.89062V10.1562H0Z"
    fill="#99CC00"
  />
<path
    d="M7.89062 13.6719H6.45312L5.67187 16.0156C4.71484 16.0312 3.94531 16.8125 3.94531 17.7734C3.94531 18.0977 4.20703 18.3594 4.53125 18.3594H7.89062"
    fill="#99CC00"
  />
</svg>
