<svg display="none"  xmlns="http://www.w3.org/2000/svg">
  <symbol id="electronix" viewBox="0 0 20 20">

    <path
        d="M12.5781 17.6562V18.6328C12.5781 19.3867 13.1914 20 13.9453 20H18.6328C19.3867 20 20 19.3867 20 18.6328V17.6562H12.5781Z"
        
      />
    <path
        d="M20 16.4844V9.25781C20 8.50391 19.3867 7.89062 18.6328 7.89062H13.9453C13.1914 7.89062 12.5781 8.50391 12.5781 9.25781V16.4844H20Z" 
      />
    <path
        d="M13.9453 6.71875C13.9453 6.71875 18.7617 6.71484 18.8281 6.71875V6.05469C18.8281 5.30078 18.2148 4.6875 17.4609 4.6875H10.4297C9.67578 4.6875 9.0625 5.30078 9.0625 6.05469V15.625H11.4062V9.25781C11.4062 7.85938 12.5469 6.71875 13.9453 6.71875Z"
        
      />
    <path
        d="M11.4063 16.7969H9.0625V17.7734C9.0625 18.5273 9.67578 19.1406 10.4297 19.1406H11.457C11.4219 18.9766 11.4063 18.8047 11.4063 18.6328V16.7969Z" 
      />
    <path
        d="M10.4297 3.51562H17.4609C17.8086 3.51562 18.1367 3.58594 18.4375 3.71094V2.14844C18.4375 0.964844 17.4727 0 16.2891 0H2.14844C0.964844 0 0 0.964844 0 2.14844V8.98438H7.89062V6.05469C7.89062 4.65625 9.03125 3.51562 10.4297 3.51562Z" 
      />
    <path
        d="M0 10.1562V10.3516C0 11.5352 0.964844 12.5 2.14844 12.5H7.89062V10.1562H0Z" 
      />
    <path
        d="M7.89062 13.6719H6.45312L5.67187 16.0156C4.71484 16.0312 3.94531 16.8125 3.94531 17.7734C3.94531 18.0977 4.20703 18.3594 4.53125 18.3594H7.89062" 
      />

  </symbol>

  <symbol id="ico-dress" viewBox="0 0 21 19">
    <path d="M20.9689 3.09957C20.9215 2.97649 20.8363 2.88181 20.7227 2.825L16.7177 0.978734C16.1402 0.779906 15.5532 0.618949 14.9661 0.476929C14.9377 0.581077 14.8999 0.685225 14.8525 0.789374L13.4229 3.52564C13.0536 4.23574 12.1257 4.4251 11.5103 3.93276L11.0369 3.55404V7.66316C11.0369 7.95667 10.8002 8.19338 10.5067 8.19338C10.2132 8.19338 9.97649 7.95667 9.97649 7.66316V3.55404L9.50309 3.93276C8.8782 4.4251 7.9598 4.23574 7.59055 3.52564L6.14194 0.789374C6.08513 0.685225 6.04726 0.581077 6.02832 0.476929C5.4413 0.618949 4.85429 0.779906 4.26727 0.978734L0.271758 2.825C0.158142 2.88181 0.0634612 2.97649 0.0255891 3.09957C-0.012283 3.22266 -0.012283 3.35521 0.0539932 3.46883L1.79611 6.89626C1.90026 7.10455 2.13696 7.19923 2.35472 7.13296L4.2862 6.56487V18.078C4.2862 18.3431 4.4945 18.5514 4.7596 18.5514H16.2538C16.5189 18.5514 16.7272 18.3336 16.7272 18.078V6.57434L18.6587 7.14242C18.8764 7.2087 19.1131 7.10455 19.2173 6.90572L20.9594 3.4783C21.0067 3.35521 21.0162 3.22266 20.9689 3.09957Z" />
</symbol>

<symbol id="arr_down-ico" viewBox="0 0 12 7">
  <path d="M11.0268 0.814784C11.1012 0.889189 11.1384 0.974755 11.1384 1.07148C11.1384 1.16821 11.1012 1.25377 11.0268 1.32818L5.82589 6.52907C5.75149 6.60348 5.66592 6.64068 5.5692 6.64068C5.47247 6.64068 5.3869 6.60348 5.3125 6.52907L0.111607 1.32818C0.0372024 1.25377 0 1.16821 0 1.07148C0 0.974755 0.0372024 0.889189 0.111607 0.814784L0.669643 0.256748C0.744048 0.182344 0.829613 0.145142 0.926339 0.145142C1.02307 0.145142 1.10863 0.182344 1.18304 0.256748L5.5692 4.64291L9.95536 0.256748C10.0298 0.182344 10.1153 0.145142 10.2121 0.145142C10.3088 0.145142 10.3943 0.182344 10.4688 0.256748L11.0268 0.814784Z"/>
</symbol>
</svg>
