<svg
  width="12"
  height="7"
  viewBox="0 0 12 7"
  xmlns="http://www.w3.org/2000/svg"
>
<path
    d="M11.0268 0.814784C11.1012 0.889189 11.1384 0.974755 11.1384 1.07148C11.1384 1.16821 11.1012 1.25377 11.0268 1.32818L5.82589 6.52907C5.75149 6.60348 5.66592 6.64068 5.5692 6.64068C5.47247 6.64068 5.3869 6.60348 5.3125 6.52907L0.111607 1.32818C0.0372024 1.25377 0 1.16821 0 1.07148C0 0.974755 0.0372024 0.889189 0.111607 0.814784L0.669643 0.256748C0.744048 0.182344 0.829613 0.145142 0.926339 0.145142C1.02307 0.145142 1.10863 0.182344 1.18304 0.256748L5.5692 4.64291L9.95536 0.256748C10.0298 0.182344 10.1153 0.145142 10.2121 0.145142C10.3088 0.145142 10.3943 0.182344 10.4688 0.256748L11.0268 0.814784Z"
    fill="#99CC00" 
  />
</svg>

