<svg width="17" height="19" viewBox="0 0 17 19" fill="none" xmlns="http://www.w3.org/2000/svg">
<path fill-rule="evenodd" clip-rule="evenodd" d="M15.919 7.98C15.919 10.2299 14.7005 12.6305 13.0964 14.7832C10.7459 17.9377 6.17314 17.9377 3.82263 14.7832C2.21858 12.6305 1 10.2299 1 7.98C1 4.17923 4.28396 1 8.45952 1C12.6351 1 15.919 4.17923 15.919 7.98ZM16.919 7.98C16.919 10.5579 15.5416 13.1754 13.8983 15.3807C11.1479 19.0719 5.77116 19.0719 3.02075 15.3807C1.37748 13.1754 0 10.5579 0 7.98C0 3.57277 3.78746 0 8.45952 0C13.1316 0 16.919 3.57277 16.919 7.98ZM8.45943 11C10.2115 11 11.6318 9.65685 11.6318 8C11.6318 6.34315 10.2115 5 8.45943 5C6.70741 5 5.28711 6.34315 5.28711 8C5.28711 9.65685 6.70741 11 8.45943 11Z" fill="#6699FF"/>
</svg>
