<svg width="17" height="17" viewBox="0 0 17 17" fill="none" xmlns="http://www.w3.org/2000/svg">
<path fill-rule="evenodd" clip-rule="evenodd" d="M15.9799 7.94727C15.697 4.06322 12.4562 1 8.5 1C4.35786 1 1 4.35786 1 8.5C1 12.6421 4.35786 16 8.5 16C12.492 16 15.7555 12.8812 15.9869 8.94727H10.6925C10.4851 9.96809 9.58255 10.7364 8.50051 10.7364C7.26514 10.7364 6.26367 9.73491 6.26367 8.49954C6.26367 7.26416 7.26514 6.2627 8.50051 6.2627C9.54529 6.2627 10.4228 6.97898 10.6687 7.94727H15.9799ZM16.9823 7.94727C16.6975 3.51046 13.0087 0 8.5 0C3.80558 0 0 3.80558 0 8.5C0 13.1944 3.80558 17 8.5 17C13.0444 17 16.7558 13.4338 16.9884 8.94727H17.0001V7.94727H16.9823Z" fill="#99CC00"/>
</svg>
