<svg width="21" height="21" viewBox="0 0 21 21" fill="none" xmlns="http://www.w3.org/2000/svg">
<circle cx="10.5" cy="10.5" r="10" stroke="#BDBDBD"/>
<path d="M16.0789 10.5C16.0789 13.3275 15.4144 15.8629 14.3658 17.6741C13.3096 19.4983 11.9251 20.5 10.5 20.5C9.0749 20.5 7.69036 19.4983 6.63425 17.6741C5.58563 15.8629 4.92105 13.3275 4.92105 10.5C4.92105 7.67248 5.58563 5.13715 6.63425 3.3259C7.69036 1.5017 9.0749 0.5 10.5 0.5C11.9251 0.5 13.3096 1.5017 14.3658 3.3259C15.4144 5.13715 16.0789 7.67248 16.0789 10.5Z" stroke="#BDBDBD"/>
<path d="M2.39999 16.5789C4.32586 15.2289 7.23934 14.3684 10.5 14.3684C13.7606 14.3684 16.674 15.2289 18.5999 16.5789" stroke="#BDBDBD"/>
<path d="M18.5999 4.42106C16.674 5.77115 13.7605 6.63159 10.4999 6.63159C7.23932 6.63159 4.32584 5.77115 2.39996 4.42107" stroke="#BDBDBD"/>
<line x1="-4.37114e-08" y1="10.5" x2="21" y2="10.5" stroke="#BDBDBD"/>
<line x1="10.5" y1="-2.18557e-08" x2="10.5" y2="21" stroke="#BDBDBD"/>
</svg>
